<svg width="258" height="221" xmlns="http://www.w3.org/2000/svg" xmlns:xlink="http://www.w3.org/1999/xlink" overflow="hidden"><defs><clipPath id="clip0"><rect x="226" y="169" width="258" height="221"/></clipPath><radialGradient cx="0.5" cy="2085976" r="3216152" fx="0.403449" fy="2085976" gradientUnits="userSpaceOnUse" spreadMethod="pad" id="fill1" gradientTransform="matrix(0.000104987 0 0 0.000104987 226 170)"><stop offset="0" stop-color="#A355CF"/><stop offset="1" stop-color="#ABC0E4"/><stop offset="1" stop-color="#ABC0E4"/></radialGradient></defs><g clip-path="url(#clip0)" transform="translate(-226 -169)"><path d="M476.428 302.523C485.748 289.021 485.105 270.697 474.821 257.838 476.107 253.98 476.749 250.122 476.749 246.264 476.749 227.94 463.573 212.509 445.898 208.973 440.435 193.221 425.974 182.934 409.262 182.934 406.37 182.934 403.157 183.255 400.264 183.898 393.516 175.861 383.553 171.039 373.27 170.075 362.664 169.432 352.381 172.968 344.668 180.04 334.706 173.289 322.172 171.36 310.925 174.897 299.355 178.433 290.357 187.113 286.179 198.686 285.537 198.686 284.573 198.686 283.93 198.686 262.72 198.686 245.687 215.403 245.366 236.62 245.366 237.263 245.366 237.906 245.366 238.549 232.511 245.622 225.12 259.445 226.084 274.233 227.369 294.486 245.366 309.595 265.933 309.595L315.745 309.595C336.955 309.595 354.309 326.634 354.63 347.851L354.63 389 380.018 389 380.018 360.067C380.018 358.781 380.018 357.174 380.018 355.888 380.018 343.993 379.697 328.884 388.052 319.24 393.194 313.775 398.979 308.952 405.085 304.773 409.905 301.88 414.083 298.344 417.618 294.164 419.225 291.593 420.832 289.021 421.796 286.449 415.047 283.877 407.977 282.913 400.907 283.877 397.372 284.199 394.158 281.948 393.516 278.412 393.194 274.876 395.444 271.661 398.979 271.018 407.656 269.732 416.333 270.697 424.688 273.911 424.688 272.947 424.688 272.304 425.01 271.34 425.331 266.196 424.688 261.052 423.081 256.23 418.582 244.657 407.334 239.513 396.729 235.334 394.801 234.691 392.873 234.048 390.302 233.405L388.374 232.762 388.052 232.762C385.482 233.084 383.232 233.727 380.661 234.691L377.769 235.334 374.555 235.977C369.092 242.407 366.199 250.765 366.842 259.445 367.485 268.125 371.663 275.84 378.09 281.305 380.661 283.556 380.661 287.413 378.733 290.307 376.805 292.557 372.948 292.879 370.377 290.95 366.521 287.735 363.307 283.556 360.736 279.055L360.094 279.055C351.095 277.448 340.812 275.84 332.456 270.375 329.564 268.446 328.921 264.589 330.849 261.695 332.777 258.802 336.634 257.838 339.526 259.766 344.347 262.66 349.81 264.589 355.594 265.232 354.952 263.624 354.63 262.017 354.309 260.088 353.666 253.016 354.952 245.622 357.844 239.192 353.345 239.835 349.167 240.156 344.668 240.156 340.812 240.156 336.955 239.835 333.099 239.192 326.029 247.872 316.066 254.301 305.14 256.873 290.679 264.267 277.181 273.59 277.181 289.342 277.181 292.879 274.289 295.772 270.754 295.772 267.219 295.772 264.327 292.879 264.327 289.342 264.648 277.126 270.111 265.875 279.431 258.159 271.718 257.195 264.648 253.98 259.506 248.193 257.257 245.3 257.899 241.442 260.47 239.192 263.041 236.942 267.219 237.263 269.468 239.835 272.039 243.05 279.431 245.943 290.036 245.622 300.641 245.622 311.246 241.764 319.28 234.691 309.96 230.834 302.248 223.761 297.427 214.76 295.499 211.545 296.785 207.687 299.677 206.08 302.89 204.151 306.747 205.437 308.354 208.33 317.995 225.69 338.241 230.512 370.056 223.118 364.271 218.296 360.094 210.581 360.415 198.364 360.415 194.828 363.629 191.935 367.164 192.256 370.699 192.256 373.591 195.471 373.27 199.007 372.627 213.474 380.661 216.367 393.516 220.225 395.444 220.868 397.372 221.189 399.3 221.832 402.835 213.795 409.905 207.687 418.582 205.437 422.117 204.472 425.652 206.723 426.616 210.259 427.58 213.795 425.331 217.332 421.796 218.296 417.297 219.582 413.762 222.475 411.512 226.654 411.512 226.976 411.512 226.976 411.512 227.297 421.474 232.119 430.151 239.192 434.65 251.087 435.615 253.658 436.257 256.23 436.579 258.802 437.864 257.838 438.828 256.552 439.471 254.944 441.72 250.122 443.327 245.3 443.97 239.835 444.291 237.585 445.898 235.656 448.148 234.691 450.397 233.727 452.968 234.37 454.575 235.977 456.503 237.585 457.146 239.835 456.503 242.407 455.539 248.836 453.611 255.266 450.397 261.052 447.184 266.517 442.363 271.018 436.579 274.233 435.936 282.27 433.365 290.307 429.509 297.379 433.686 302.201 438.185 306.381 443.649 309.595 445.577 310.881 446.862 313.132 446.862 315.382 446.862 317.632 445.577 319.883 443.327 320.847 441.078 321.811 438.828 321.811 436.9 320.526 431.437 316.989 426.295 312.489 421.796 307.667 418.582 310.238 415.047 312.81 411.833 315.06 406.37 318.597 401.55 322.454 397.372 327.277 392.23 333.385 392.551 345.279 392.551 355.567 392.551 357.174 392.551 358.46 392.551 360.067L392.551 389 418.261 389C418.261 347.208 438.185 344.958 440.756 344.315 449.112 342.065 471.286 330.491 476.107 306.702 476.749 305.416 476.428 303.809 476.428 302.523 476.107 302.523 476.107 302.523 476.428 302.523Z" fill="url(#fill1)" fill-rule="evenodd"/></g></svg>